<?xml version="1.0" encoding="utf-8"?>
<!-- Generator: Adobe Illustrator 13.0.2, SVG Export Plug-In . SVG Version: 6.00 Build 14948)  -->
<!DOCTYPE svg PUBLIC "-//W3C//DTD SVG 1.1 Tiny//EN" "http://www.w3.org/Graphics/SVG/1.1/DTD/svg11-tiny.dtd">
<svg version="1.1" baseProfile="tiny" id="Ebene_1" xmlns="http://www.w3.org/2000/svg" xmlns:xlink="http://www.w3.org/1999/xlink"
	 x="0px" y="0px" width="533.526px" height="566px" viewBox="0 0 533.526 566" xml:space="preserve">
<path d="M9.578,0C2.424,33.004,0,63.082,0,87.442C0,229.377,51.679,427.931,266.763,566
	C481.847,427.931,533.526,229.377,533.526,87.442c0-24.36-2.423-54.438-9.577-87.442H9.578z"/>
<path fill="#DB001B" d="M509.558,87.442c0-20.522-1.875-42.148-5.436-63.473c-35.183,0-439.536,0-474.719,0
	c-3.56,21.325-5.435,42.951-5.435,63.473c0,26.283,1.915,58.993,8.208,95.431H501.35
	C507.644,146.435,509.558,113.725,509.558,87.442z"/>
<path fill="#008035" d="M125.615,255.223c0-18.623-3.823-36.72-14.895-54.595H35.553c7.6,36.796,19.771,76.749,38.862,117.342
	c25.513,54.25,60.272,103.313,103.84,146.763c-4.525-54.083-62.628-91.913-62.628-147.368
	C115.627,302.717,125.615,282.299,125.615,255.223z"/>
<path fill="#008035" d="M413.812,200.627c2.956,16.24,3.422,29.043,3.422,40.392c0,36.397-6.692,65.862-30.184,102.977
	c-11.097,17.533-24.678,43.32-27.519,66.58c-1.789,14.646-3.107,36.397-11.984,51.488c-3.563,6.058-6.443,11.938-8.604,18.289
	c51.278-47.2,91.545-101.523,120.167-162.383c19.092-40.593,31.262-80.546,38.862-117.342H413.812z"/>
<path fill="#008035" d="M253.004,462.064c0-32.18-31.071-57.037-31.071-110.966c0-43.942,14.204-66.357,14.204-103.864
	c0-20.988-0.947-31.411-7.647-46.606h-46.576c8.539,25.97,10.946,46.171,10.946,62.585c0,44.165-14.869,66.358-14.869,95.875
	c0,24.413,17.754,41.944,17.754,68.354c0,17.374-4.224,31.684-11.737,42.933c19.86,19.243,41.487,37.355,64.839,54.298
	c-3.068-7.79-4.499-15.808-4.499-25.324C244.348,483.37,253.004,475.158,253.004,462.064z"/>
<path fill="#008035" d="M322.247,388.382c0-64.804,33.068-71.685,33.068-137.598c0-15.464-1.938-30.236-9.327-50.157h-47.855
	c7.765,19.21,9.91,33.615,9.91,55.483c0,60.81-28.407,87.441-28.407,130.496c0,27.742,10.652,41.28,10.652,65.693
	c0,29.294-29.739,57.036-29.739,72.793c0,3.239,0.209,5.931,0.939,8.52c1.753,1.21,3.502,2.423,5.275,3.62
	c19.44-13.129,37.765-27.023,54.972-41.651c3.951-14.874,8.5-24.004,8.5-43.727C330.236,436.986,322.247,416.124,322.247,388.382z"
	/>
<circle cx="102.311" cy="136.8" r="14.759"/>
<circle cx="254.557" cy="137.155" r="14.759"/>
<circle cx="343.109" cy="137.155" r="14.759"/>
<polygon points="83.447,51.044 46.384,51.044 46.384,73.682 56.815,73.682 56.815,150.915 83.447,150.915 "/>
<polygon points="168.225,73.682 168.225,51.044 121.176,51.044 121.176,150.915 147.807,150.915 147.807,112.52 166.894,112.52 
	166.894,89.883 147.807,89.883 147.807,73.682 "/>
<path d="M306.268,49.103c-16.535,0-30.184,11.318-30.184,31.958c0,12.021,6.936,19.808,15.092,27.963
	c6.603,6.603,11.097,10.209,11.097,12.872c0,3.551-2.996,7.546-8.434,7.546c-3.842,0-10.799-2.604-16.867-9.528v28.759
	c7.677,3.685,14.649,4.183,20.862,4.183c16.423,0,29.517-12.983,29.517-33.623c0-16.312-6.813-21.084-13.316-26.188
	c-6.017-4.722-11.763-8.101-11.763-13.76c0-4.291,2.293-5.992,6.658-5.992c5.097,0,11.169,2.784,16.423,9.574V54.061
	C318.916,49.72,312.439,49.103,306.268,49.103z"/>
<path d="M461.177,85.666c-0.617,0-1.229,0.022-1.84,0.044l1.51-12.028h29.181V51.044h-49.687l-7.166,57.101
	c5.035-2.15,10.996-3.504,16.904-3.504c11.541,0,17.089,6.769,17.089,12.539c0,8.655-8.063,12.206-15.313,12.206
	c-5.553,0-13.33-2.354-20.413-7.433l-2.919,23.262c7.598,4.767,16.898,7.918,28.659,7.918c20.417,0,35.064-15.832,35.064-35.953
	C492.247,96.319,480.707,85.666,461.177,85.666z"/>
<path d="M217.938,128.721c-11.318,0-17.644-10.32-17.644-27.298c0-18.975,7.949-27.964,17.755-27.964
	c5.381,0,9.771,2.641,13.253,7.091l-1.343-29.105c-4.358-1.692-9.373-2.62-15.129-2.62c-23.081,0-41.279,21.454-41.279,52.154
	c0,31.44,14.846,52.154,40.392,52.154c5.825,0,11.115-1.273,15.816-3.568l1.587-26.454
	C227.113,126.973,222.233,128.721,217.938,128.721z"/>
<path d="M388.605,49.38c-22.496,0-34.844,19.984-34.844,52.265c0,32.281,12.348,52.265,34.844,52.265
	c22.495,0,34.843-19.984,34.843-52.265C423.448,69.364,411.1,49.38,388.605,49.38z M388.826,132.05
	c-5.881,0-9.765-9.654-9.765-30.183s3.884-30.183,9.765-30.183s9.765,9.654,9.765,30.183S394.708,132.05,388.826,132.05z"/>
</svg>
