<?xml version="1.0" encoding="utf-8"?>
<!-- Generator: Adobe Illustrator 11.0, SVG Export Plug-In  -->
<!DOCTYPE svg PUBLIC "-//W3C//DTD SVG 1.0//EN"    "http://www.w3.org/TR/2001/REC-SVG-20010904/DTD/svg10.dtd" [
	<!ENTITY ns_flows "http://ns.adobe.com/Flows/1.0/">
	<!ENTITY ns_svg "http://www.w3.org/2000/svg">
	<!ENTITY ns_xlink "http://www.w3.org/1999/xlink">
]>
<svg  xmlns="&ns_svg;" xmlns:xlink="&ns_xlink;" xmlns:a="http://ns.adobe.com/AdobeSVGViewerExtensions/3.0/"
	 width="571" height="571" viewBox="-0.121 -0.061 571 571" xml:space="preserve">
	<defs>
	</defs>
	<g>
		<path fill="#F2AF18" d="M0,285.44c0,157.393,128.048,285.439,285.44,285.439c157.393,0,285.439-128.047,285.439-285.439
			C570.879,128.048,442.833,0,285.44,0C128.048,0,0,128.048,0,285.44z"/>
		<path fill="#FFFFFF" d="M12.8,285.44c0,150.334,122.306,272.64,272.64,272.64c150.334,0,272.64-122.306,272.64-272.64
			c0-150.334-122.306-272.64-272.64-272.64C135.105,12.8,12.8,135.105,12.8,285.44z"/>
		<circle fill="#F2AF18" cx="285.44" cy="285.44" r="202.24"/> 
		<path fill="#FFFFFF" d="M454.718,200.465l-2.402-0.889c-44.145-15.813-55.71-58.921-57.837-68.963
			C419.852,148.536,440.64,172.532,454.718,200.465z"/>
		<path fill="#FFFFFF" d="M375.761,118.952c-35.128,11.569-60.416-2.035-83.311-17.021l-7.011-4.589l-7.01,4.588
			c-22.896,14.987-48.186,28.591-83.311,17.022C221.982,104.32,252.757,96,285.44,96S348.897,104.32,375.761,118.952z"/>
		<path fill="#FFFFFF" d="M176.401,130.614c-2.127,10.041-13.691,53.15-57.838,68.963l-2.385,0.854
			C130.257,172.512,151.038,148.529,176.401,130.614z"/>
		<path fill="#FFFFFF" d="M96,285.44c0-24.728,4.769-48.362,13.425-70.038c1.868,2.277,3.363,4.101,3.494,4.261
			c0.162,0.21,15.935,21.484,15.935,85.831c0,35.121,9.602,66.02,27.766,89.356c14.947,19.201,35.58,32.76,56.724,37.335
			c3.436,1.082,40.092,13.006,63.046,35.96l6.705,6.705C179.715,473.587,96,389.113,96,285.44z"/>
		<path fill="#FFFFFF" d="M287.786,474.85l6.705-6.705c22.95-22.95,59.597-34.873,63.044-35.959
			c21.146-4.575,41.777-18.134,56.727-37.336c18.164-23.337,27.765-54.235,27.765-89.356c0-64.351,15.776-85.623,15.936-85.831
			c0.132-0.161,1.63-1.989,3.493-4.262c8.656,21.676,13.425,45.31,13.425,70.039C474.879,389.113,391.165,473.587,287.786,474.85z"
			/>
		<path d="M381.44,130.56c-41.813,14.507-72.534-2.56-96-17.92c-23.466,15.36-54.187,32.427-96,17.92c0,0-9.386,60.587-66.56,81.067
			c0,0,18.774,22.187,18.774,93.867c0,71.68,41.813,107.52,75.092,114.347c0,0,42.027,12.587,68.694,39.253
			c26.666-26.666,68.693-39.253,68.693-39.253c33.28-6.827,75.093-42.667,75.093-114.347c0-71.68,18.773-93.867,18.773-93.867
			C390.826,191.147,381.44,130.56,381.44,130.56z"/>
		<path d="M69.104,256.116l-2.202,27.753l-7.895-0.627l1.31-16.508l-6.38-0.506l-1.121,14.115l-7.416-0.588l1.12-14.116
			l-14.993-1.19l0.892-11.244L69.104,256.116z"/>
		<path d="M57.159,298.375c1.723,1.247,2.667,2.997,2.835,5.248c0.177,2.366-0.482,4.297-1.974,5.792
			c-1.493,1.495-3.97,2.373-7.428,2.63c-4.111,0.307-7.009-0.14-8.694-1.337c-1.686-1.2-2.619-3.008-2.798-5.427
			c-0.175-2.335,0.498-4.242,2.017-5.722c1.52-1.479,4.134-2.358,7.844-2.634C52.702,296.645,55.436,297.128,57.159,298.375z
			 M37.666,288.964c-2.732,1.875-4.658,4.208-5.776,6.998c-1.118,2.787-1.524,6.229-1.219,10.326
			c0.302,4.044,1.316,7.358,3.046,9.945c1.729,2.585,4.021,4.488,6.875,5.712c2.854,1.224,6.427,1.677,10.718,1.356
			c5.911-0.441,10.387-2.417,13.424-5.93c3.037-3.514,4.331-8.303,3.878-14.369c-0.44-5.901-2.454-10.376-6.04-13.428
			c-3.587-3.051-8.377-4.354-14.372-3.906C43.907,285.99,40.396,287.087,37.666,288.964z"/>
		<path d="M62.563,337.57c1.913,0.93,3.147,2.489,3.703,4.677c0.584,2.301,0.271,4.315-0.94,6.047
			c-1.211,1.732-3.498,3.025-6.859,3.879c-3.996,1.015-6.927,1.076-8.794,0.188c-1.869-0.889-3.1-2.507-3.697-4.857
			c-0.576-2.27-0.245-4.265,0.995-5.986c1.24-1.72,3.662-3.038,7.268-3.953C57.875,336.64,60.651,336.641,62.563,337.57z
			 M41.734,331.682c-2.365,2.32-3.857,4.951-4.475,7.893c-0.617,2.94-0.421,6.401,0.59,10.382c0.998,3.931,2.572,7.02,4.724,9.266
			s4.739,3.726,7.762,4.436s6.62,0.536,10.792-0.522c5.745-1.459,9.809-4.183,12.192-8.168c2.382-3.986,2.825-8.928,1.328-14.823
			c-1.457-5.735-4.216-9.794-8.276-12.178c-4.062-2.383-9.005-2.835-14.832-1.355C47.367,327.671,44.099,329.361,41.734,331.682z"/>
		<path d="M78.141,356.623l13.476,31.39l-8.38,3.598l-4.513-10.512l-25.435,10.919l-4.45-10.364l25.435-10.921l-4.513-10.511
			L78.141,356.623z"/>
		<path d="M91.829,402.317l2.647,4.214c0.909,1.446,1.291,2.62,1.148,3.521c-0.143,0.902-0.667,1.638-1.571,2.205
			c-0.977,0.614-1.905,0.79-2.785,0.532c-0.882-0.257-1.79-1.131-2.726-2.621l-2.607-4.148L91.829,402.317z M60.925,408.316
			l10.341,16.462c0.436,0.694,1.469,2.022,3.098,3.985c1.228,1.483,2.33,2.48,3.306,2.995c1.561,0.816,3.221,1.192,4.98,1.128
			c1.759-0.067,3.446-0.608,5.064-1.624c1.985-1.247,3.304-2.808,3.96-4.678c0.655-1.871,0.559-4.078-0.288-6.623
			c1.427,1.143,2.816,1.813,4.168,2.016c2.029,0.308,3.964-0.114,5.804-1.271c2.193-1.379,3.535-3.33,4.022-5.853
			c0.488-2.524-0.204-5.275-2.075-8.256l-11.22-17.858L60.925,408.316z M79.974,409.765l3.051,4.854
			c1.043,1.661,1.495,3.002,1.355,4.019c-0.14,1.018-0.669,1.816-1.587,2.395c-0.991,0.622-1.991,0.779-3.001,0.474
			c-1.01-0.306-2.028-1.275-3.053-2.908l-3.063-4.876L79.974,409.765z"/>
		<path d="M101.308,441.745l12.554-5.691l-7.341,11.667L101.308,441.745z M98.674,460.144l7.752,8.886l18.786-34.446l-8.116-9.304
			l-36.754,13.849l7.576,8.686l5.782-2.622l8.36,9.584L98.674,460.144z"/>
		<path d="M134.049,444.047l8.583,7.318l-18.01,21.125l13.394,11.418l-5.865,6.88l-21.978-18.736L134.049,444.047z"/>
		<path d="M156.912,463.249l9.497,6.089l-14.983,23.369l14.816,9.5l-4.879,7.609l-24.312-15.587L156.912,463.249z"/>
		<path d="M197.627,510.94l8.333-10.979l-0.904,13.754L197.627,510.94z M204.065,528.375l11.047,4.127l0.129-39.235l-11.565-4.32
			l-25.735,29.672l10.796,4.032l3.838-5.057l11.914,4.45L204.065,528.375z"/>
		<path d="M220.611,521.165l10.641,1.468c-0.127,1.789,0.069,3.21,0.587,4.264c0.826,1.706,2.287,2.771,4.378,3.197
			c1.569,0.32,2.855,0.194,3.858-0.38c1.001-0.573,1.603-1.354,1.804-2.34c0.19-0.935-0.039-1.854-0.687-2.755
			c-0.665-0.905-2.405-1.986-5.224-3.244c-4.614-2.085-7.759-4.247-9.437-6.489c-1.712-2.249-2.28-4.785-1.704-7.613
			c0.378-1.855,1.268-3.502,2.67-4.936s3.266-2.406,5.591-2.918c2.324-0.51,5.349-0.386,9.072,0.371
			c4.559,0.929,7.857,2.494,9.895,4.695c2.037,2.2,2.904,5.218,2.602,9.053l-10.55-1.513c0.049-1.671-0.292-2.964-1.025-3.879
			c-0.734-0.914-1.877-1.53-3.431-1.846c-1.276-0.261-2.292-0.181-3.051,0.238s-1.217,1.021-1.377,1.809
			c-0.118,0.576,0.042,1.146,0.48,1.714c0.432,0.585,1.583,1.281,3.451,2.089c4.607,2.032,7.844,3.798,9.708,5.295
			c1.863,1.499,3.11,3.139,3.736,4.923c0.627,1.783,0.741,3.658,0.34,5.625c-0.471,2.313-1.541,4.313-3.209,6.005
			s-3.741,2.81-6.217,3.354c-2.478,0.545-5.438,0.468-8.882-0.233c-6.085-1.24-10.05-3.28-11.897-6.121
			C220.886,528.156,220.179,524.877,220.611,521.165z"/>
		<path d="M256.123,528.167l10.741-0.132c0.141,1.788,0.546,3.164,1.214,4.13c1.07,1.564,2.674,2.4,4.806,2.511
			c1.599,0.082,2.852-0.233,3.758-0.95c0.906-0.717,1.385-1.576,1.437-2.581c0.049-0.954-0.314-1.828-1.089-2.623
			c-0.792-0.796-2.674-1.606-5.648-2.431c-4.873-1.377-8.305-3.047-10.297-5.016c-2.028-1.969-2.966-4.393-2.817-7.273
			c0.097-1.893,0.733-3.651,1.906-5.279c1.173-1.626,2.872-2.864,5.095-3.716c2.222-0.85,5.232-1.178,9.026-0.981
			c4.647,0.24,8.141,1.298,10.484,3.17c2.34,1.874,3.647,4.729,3.917,8.565l-10.657,0.073c-0.2-1.66-0.729-2.887-1.59-3.684
			c-0.862-0.794-2.084-1.232-3.667-1.314c-1.301-0.066-2.294,0.163-2.982,0.689s-1.052,1.191-1.093,1.994
			c-0.03,0.586,0.212,1.127,0.729,1.623c0.514,0.515,1.756,1.03,3.724,1.552c4.858,1.325,8.321,2.59,10.387,3.794
			c2.064,1.203,3.542,2.641,4.428,4.311c0.885,1.671,1.275,3.509,1.172,5.512c-0.122,2.357-0.883,4.496-2.28,6.416
			c-1.399,1.92-3.282,3.335-5.649,4.243c-2.369,0.906-5.308,1.27-8.818,1.088c-6.201-0.321-10.425-1.748-12.674-4.283
			C257.434,535.039,256.248,531.903,256.123,528.167z"/>
		<path d="M304.736,514.44c1.188-1.763,2.904-2.767,5.149-3.01c2.359-0.257,4.311,0.336,5.855,1.777
			c1.544,1.442,2.504,3.888,2.878,7.335c0.445,4.099,0.097,7.01-1.044,8.733c-1.143,1.727-2.917,2.719-5.328,2.98
			c-2.328,0.252-4.258-0.355-5.788-1.824c-1.53-1.467-2.495-4.051-2.896-7.75C303.158,518.953,303.547,516.204,304.736,514.44z
			 M295.986,534.239c1.968,2.667,4.362,4.514,7.189,5.537c2.823,1.022,6.277,1.314,10.36,0.87c4.031-0.438,7.312-1.563,9.838-3.379
			c2.525-1.816,4.352-4.17,5.478-7.063c1.128-2.894,1.46-6.479,0.995-10.758c-0.64-5.894-2.767-10.299-6.379-13.216
			c-3.613-2.918-8.443-4.049-14.49-3.393c-5.884,0.639-10.288,2.801-13.217,6.487c-2.929,3.688-4.069,8.521-3.422,14.496
			C292.803,528.1,294.02,531.574,295.986,534.239z"/>
		<path d="M358.691,515.203l10.284,0.196c0.135,2.868-0.227,5.399-1.083,7.592c-0.857,2.193-2.175,4.038-3.951,5.533
			c-1.777,1.496-4.236,2.689-7.376,3.581c-3.803,1.08-7.071,1.402-9.804,0.971c-2.735-0.432-5.379-1.809-7.934-4.128
			c-2.557-2.319-4.458-5.677-5.705-10.071c-1.664-5.859-1.399-10.801,0.795-14.825c2.195-4.023,6.122-6.839,11.781-8.445
			c4.417-1.255,8.144-1.339,11.178-0.254s5.693,3.319,7.979,6.701l-8.93,4.87c-0.649-0.988-1.229-1.68-1.744-2.077
			c-0.838-0.671-1.76-1.108-2.771-1.312c-1.01-0.203-2.064-0.149-3.163,0.163c-2.458,0.697-4.06,2.23-4.802,4.6
			c-0.567,1.762-0.4,4.229,0.5,7.398c1.116,3.931,2.47,6.455,4.062,7.579c1.592,1.122,3.461,1.379,5.607,0.77
			c2.066-0.586,3.466-1.614,4.198-3.087C358.546,519.486,358.838,517.567,358.691,515.203z"/>
		<path d="M363.838,490.236l10.409-4.348l14.187,33.955l-10.408,4.349L363.838,490.236z"/>
		<path d="M399.976,498.445l-3.045-13.442l9.948,9.54L399.976,498.445z M417.467,504.73l10.265-5.804l-29.957-25.338l-10.746,6.078
			l6.162,38.79l10.032-5.673l-1.402-6.191l11.071-6.26L417.467,504.73z"/>
		<path d="M404.104,470.311l27.112-20.78l5.547,7.239l-9.079,6.959l16.838,21.969l-8.952,6.862l-16.839-21.97l-9.08,6.96
			L404.104,470.311z"/>
		<path d="M432.12,447.932l8.138-7.813l25.483,26.549l-8.137,7.812L432.12,447.932z"/>
		<path d="M459.261,434.861c-0.396-2.089,0.118-4.01,1.542-5.763c1.497-1.841,3.302-2.792,5.413-2.854
			c2.112-0.062,4.515,1.003,7.206,3.188c3.199,2.601,4.997,4.915,5.4,6.942c0.402,2.03-0.162,3.985-1.691,5.866
			c-1.477,1.818-3.275,2.743-5.396,2.775c-2.121,0.032-4.625-1.125-7.511-3.472C461.312,439.178,459.658,436.95,459.261,434.861z
			 M466.968,455.087c3.274,0.513,6.275,0.14,9.004-1.12c2.728-1.26,5.388-3.482,7.978-6.67c2.558-3.147,4.097-6.254,4.615-9.321
			c0.518-3.066,0.16-6.025-1.075-8.874c-1.233-2.85-3.52-5.632-6.86-8.346c-4.599-3.739-9.21-5.375-13.829-4.908
			c-4.62,0.468-8.85,3.062-12.687,7.781c-3.731,4.593-5.342,9.229-4.83,13.909c0.513,4.682,3.1,8.918,7.765,12.709
			C460.388,452.963,463.696,454.576,466.968,455.087z"/>
		<path d="M467.356,407.949l5.117-9.151l24.481-2.07l-17.769-9.936l5.193-9.287l32.119,17.961l-5.192,9.287l-24.347,2.059
			l17.67,9.881l-5.153,9.217L467.356,407.949z"/>
		<path d="M490.539,361.8l3.231-10.808l26.596,7.953l5.043-16.862l8.661,2.59l-8.273,27.669L490.539,361.8z"/>
		<path d="M498.021,338.066l5.364-33.736l9.006,1.432l-1.796,11.299l27.337,4.346l-1.771,11.141l-27.337-4.347l-1.796,11.298
			L498.021,338.066z"/>
		<path d="M511.736,289.298c0.011-2.916,0.735-4.999,2.177-6.252c1.441-1.253,4.108-1.874,8.002-1.861
			c2.942,0.009,5.067,0.297,6.379,0.862c1.311,0.565,2.227,1.347,2.75,2.346c0.522,1,0.78,2.671,0.772,5.018l-0.009,2.765
			l-20.08-0.063L511.736,289.298z M540.172,303.482l0.053-16.762c0.006-1.997-0.32-4.238-0.982-6.724
			c-0.48-1.813-1.449-3.51-2.909-5.093c-1.459-1.582-3.27-2.82-5.435-3.717c-2.165-0.896-5.214-1.35-9.146-1.362
			c-2.51-0.008-4.888,0.288-7.133,0.884c-2.243,0.598-4.214,1.557-5.907,2.877c-1.693,1.319-2.996,2.994-3.906,5.021
			s-1.371,4.693-1.381,7.999l-0.053,16.761L540.172,303.482z"/>
		<path d="M529.211,266.442l-1.125-10.741l10.185-1.067l1.125,10.741L529.211,266.442z"/>
		<path d="M68.679,147.766l20.449-28.256l7.518,5.44l-6.847,9.462l22.942,16.603l-6.754,9.333l-22.942-16.603l-6.848,9.462
			L68.679,147.766z"/>
		<path d="M93.869,113.919l8.184-8.108l9.29,9.378l8.866-8.784l-9.29-9.376l8.184-8.108l26.463,26.711l-8.184,8.108l-10.698-10.798
			l-8.866,8.784l10.698,10.797l-8.184,8.108L93.869,113.919z"/>
		<path d="M126.661,82.863l25.131-17.807l4.625,6.527L140.686,82.73l3.469,4.896l14.622-10.36l4.44,6.266l-14.622,10.361l4.301,6.07
			l16.189-11.471l4.902,6.919l-25.588,18.131L126.661,82.863z"/>
		<path d="M174.085,52.585l10.679-4.322l4.952,12.236l11.568-4.682l-4.952-12.236l10.679-4.321l14.105,34.854l-10.679,4.321
			l-5.702-14.09l-11.569,4.682l5.702,14.09l-10.679,4.321L174.085,52.585z"/>
		<path d="M230.812,44.272c1.03-1.903,2.668-3.087,4.914-3.55c2.363-0.487,4.394-0.072,6.096,1.242
			c1.701,1.313,2.909,3.701,3.623,7.164c0.848,4.113,0.778,7.1-0.208,8.96c-0.987,1.86-2.687,3.038-5.099,3.534
			c-2.33,0.48-4.339,0.049-6.029-1.293c-1.691-1.343-2.918-3.871-3.683-7.584C229.653,48.999,229.782,46.175,230.812,44.272z
			 M223.846,65.268c2.255,2.521,4.864,4.165,7.83,4.932c2.966,0.768,6.498,0.729,10.596-0.115c4.047-0.834,7.265-2.295,9.651-4.384
			c2.385-2.089,4.01-4.66,4.872-7.709c0.863-3.049,0.852-6.725-0.036-11.029c-1.222-5.928-3.807-10.199-7.755-12.816
			c-3.949-2.616-8.959-3.299-15.031-2.048c-5.905,1.217-10.165,3.84-12.778,7.871c-2.614,4.031-3.301,9.051-2.062,15.063
			C220.021,59.335,221.59,62.747,223.846,65.268z"/>
		<path d="M261.762,27.972l10.719-0.247l14.473,20.447l-0.479-20.769l10.797-0.249l0.865,37.591l-10.796,0.248l-14.393-20.337
			l0.475,20.658l-10.797,0.248L261.762,27.972z"/>
		<path d="M322.171,54.437l1.224-7.744l17.542,2.77l-2.498,15.826c-3.724,1.786-6.942,2.893-9.655,3.323
			c-2.713,0.428-5.842,0.364-9.384-0.196c-4.353-0.688-7.782-1.998-10.285-3.935c-2.504-1.935-4.277-4.508-5.317-7.719
			c-1.041-3.211-1.258-6.741-0.648-10.593c0.639-4.052,2.019-7.449,4.139-10.186c2.118-2.738,4.897-4.632,8.334-5.681
			c2.688-0.805,6.135-0.876,10.34-0.211c4.069,0.643,7.05,1.494,8.942,2.553c1.891,1.061,3.376,2.474,4.456,4.244
			c1.079,1.77,1.767,3.906,2.065,6.408l-11.298,0.25c-0.217-1.476-0.804-2.671-1.767-3.587c-0.961-0.917-2.276-1.506-3.943-1.77
			c-2.48-0.391-4.595,0.172-6.345,1.688c-1.752,1.516-2.926,4.166-3.522,7.95c-0.637,4.023-0.346,7.012,0.873,8.971
			c1.218,1.959,3.158,3.147,5.82,3.567c1.263,0.199,2.501,0.206,3.713,0.018c1.211-0.188,2.63-0.61,4.252-1.268l0.549-3.48
			L322.171,54.437z"/>
		<path d="M368.48,40.817l10.594,4.528l-5.585,13.065l16.625-8.346l14.044,6.002l-17.973,7.693l3.709,27.101l-12.997-5.555
			l-1.077-17.11l-7.973,3.411l-3.553,8.312l-10.592-4.528L368.48,40.817z"/>
		<path d="M412.765,74.175c2.069-0.631,4.067-0.323,5.991,0.925c2.023,1.313,3.179,3.036,3.466,5.166
			c0.288,2.13-0.53,4.678-2.453,7.643c-2.288,3.523-4.436,5.6-6.444,6.231c-2.009,0.63-4.046,0.273-6.111-1.067
			c-1.995-1.295-3.122-3.013-3.382-5.156c-0.261-2.144,0.644-4.804,2.707-7.985C408.62,76.726,410.696,74.807,412.765,74.175z
			 M393.059,84.224c-0.165,3.377,0.536,6.381,2.107,9.011c1.571,2.631,4.111,5.084,7.622,7.362c3.466,2.25,6.782,3.471,9.949,3.66
			c3.165,0.188,6.126-0.499,8.882-2.063c2.755-1.564,5.33-4.188,7.723-7.875c3.295-5.077,4.455-9.933,3.483-14.569
			c-0.972-4.637-4.057-8.642-9.257-12.017c-5.058-3.282-9.933-4.407-14.624-3.375c-4.691,1.032-8.707,4.123-12.049,9.271
			C394.503,77.315,393.225,80.846,393.059,84.224z"/>
		<path d="M446.209,84.266l7.824,7.331l-3.991,24.731l14.205-15.16l7.881,7.385l-25.709,27.437l-7.881-7.384l3.97-24.596
			l-14.127,15.078l-7.882-7.384L446.209,84.266z"/>
		<path d="M470.811,145.39l6.279-4.693l10.633,14.224l-12.832,9.593c-3.914-1.319-6.991-2.772-9.235-4.357
			c-2.241-1.585-4.438-3.814-6.583-6.687c-2.641-3.53-4.182-6.862-4.624-9.996s0.082-6.213,1.579-9.241
			c1.493-3.025,3.802-5.706,6.925-8.04c3.286-2.457,6.644-3.927,10.073-4.409c3.429-0.482,6.74,0.1,9.934,1.746
			c2.488,1.3,5.006,3.653,7.554,7.063c2.468,3.3,4.008,5.989,4.624,8.069c0.615,2.079,0.692,4.128,0.231,6.15
			c-0.463,2.02-1.46,4.03-2.992,6.03l-8.267-7.704c0.875-1.208,1.287-2.475,1.238-3.801c-0.05-1.328-0.579-2.667-1.591-4.02
			c-1.504-2.011-3.411-3.083-5.723-3.218c-2.313-0.137-5.002,0.943-8.071,3.237c-3.261,2.438-5.139,4.783-5.634,7.037
			c-0.493,2.253,0.066,4.458,1.681,6.616c0.765,1.024,1.647,1.893,2.647,2.603c0.998,0.71,2.309,1.398,3.93,2.06l2.822-2.11
			L470.811,145.39z"/>
		<path fill="#FF1100" d="M49.92,182.08c3.2-1.6-2.56-6.08-6.4-4.8C47.68,179.84,46.72,183.68,49.92,182.08z"/>
		<path fill="#FF1100" d="M45.12,192.32c1.6-1.6-1.92-4.16-5.76-4.48C42.56,192,43.52,193.92,45.12,192.32z"/>
		<path fill="#FF1100" d="M67.226,191.04c0.684,1.43,2.962,5.614,8.294,10.773c6.613,6.4,12.16,1.92,12.16,1.92
			c-9.828-2.091-14.739-6.238-20.354-12.83c0.082-0.114,0.163-0.23,0.243-0.347c7.34-0.766,14.137-1.543,14.137-1.543l-2.773-2.56
			c-0.492,0.327-4.919,1.222-10.183,2.199c1.292-2.302,2.315-4.862,3.097-7.218c3.354-0.634,5.806-1.167,5.806-1.167l-1.493-1.707
			l-3.682,0.855c0.998-3.401,1.442-5.976,1.442-5.976l-4.8-2.88c0.672,3.125,0.601,6.471,0.191,9.591l-8.132,1.889l0.047-2.414
			c0,0,0.426-4.694-4.907-4.694c0,0,1.787,2.257,2.612,7.629l-3.892,0.904c1.052,0.075,2.44,0.022,4.006-0.112
			c0.241,1.884,0.363,4.109,0.261,6.725l0.633,0.158C54.351,191.22,49.707,192,49.707,192c0.668,0.134,4.058-0.109,8.398-0.506
			c0.154,1.248-0.234,6.063-11.172,17.359c3.589-1.641,7.021-5.151,9.627-8.358c0.159,1.018,1,6.757,0.612,11.985
			c-0.427,5.76,5.12,6.187,5.12,6.187s0.854,0,9.174,0.213s4.906-7.893,4.906-7.893c-3.84,7.04-10.026,5.546-10.026,5.546
			c-9.813,0.854-7.04-8.106-7.04-8.106c12.8,2.987,10.24-8.747,10.24-8.747c-4.047-2.505-11.381,0.031-12.765,0.546
			c2.694-3.355,4.445-6.306,4.445-6.306l-2.831-2.454c2.574-0.237,5.457-0.524,8.301-0.819c-0.453,1.253-0.777,1.993-0.777,1.993
			C66.378,192.147,66.812,191.608,67.226,191.04z M59.307,201.173c2.987-1.067,6.4-0.64,6.4-0.64c1.707,8.533-6.4,6.4-6.4,6.4
			V201.173z M61.022,190.047l0.136-6.909c2.531-0.297,5.321-0.741,7.878-1.191c-0.471,2.69-1.148,5.109-1.753,6.975
			C65.219,189.301,63.076,189.685,61.022,190.047z"/>
		<path fill="#FF1100" d="M39.253,207.787c0,0,2.56,7.04,3.627,3.2s4.907-12.374,4.907-12.374
			C42.667,205.653,42.027,206.293,39.253,207.787z"/>
		<path fill="#FF1100" d="M511.284,188.803c3.995-0.951,8.011-1.652,10.742-1.497c0,0,5.547,0.853,3.84-1.494
			c0,0,0.216-2.133-4.052-0.853c-1.636,0.49-6.151,1.638-11.231,2.868c-0.148-3.072-0.289-5.428-0.289-5.428l-2.693-0.898
			c3.448-1.069,6.533-2.302,6.533-2.302c4.268-1.28,2.133-2.56,2.133-2.56c-2.773-4.053-4.267-0.427-4.267-0.427
			c-1.279,3.626-11.733,6.827-11.733,6.827c1.769,0,4.452-0.662,6.991-1.435c0.815,1.324,1.146,3.906,1.282,6.714
			c-7.67,1.834-15.904,3.681-17.233,3.681c1.494,1.28,1.707,3.199,6.188,0.853c0,0,3.338-1.167,7.705-2.433
			c-1.305,2.954-6.107,12.073-17.945,18.433c0,0,12.229-2.705,21.362-18.105c0.057,3.023-0.003,5.936,0.185,7.439
			c0.426,3.414,1.92,3.626,1.92,3.626c0.366-0.855,0.174-7.096-0.06-12.274l10.513,9.501c0,0,3.84,5.76,16.641,0.64
			C537.814,199.68,520.065,198.338,511.284,188.803z"/>
		<path fill="#FF1100" d="M520.534,202.453c-3.414-1.707-2.987-0.853-5.974,0.427s-14.294,2.773-14.294,2.773
			s2.347,0.214,3.2,17.494c0,0,1.92,5.12,1.92,0.64v-2.134c0,0,8.532-4.267,12.8,0c0,0-1.278,7.254,2.987,1.707
			c0,0,2.559-6.827-0.427-17.28C520.747,206.08,523.948,204.159,520.534,202.453z M518.186,219.307
			c-1.92-4.266-13.227,0.426-13.227,0.426l-0.616-6.264l10.217-1.202l-2.347-1.494l-7.882,2.563l-0.651-6.616l10.88-2.133
			c4.054-1.493,3.626,2.773,3.626,2.773C520.533,215.467,518.186,219.307,518.186,219.307z"/>
		<path fill="#FF1100" d="M261.44,296.64c-1.28-1.92-4.8-3.84,0-10.881c4.8-7.04,9.92-23.679-6.72-29.439
			c-16.64-5.76-18.56-1.92-21.12,1.6c-2.56,3.52-6.08,3.52-8.64-2.24c0,0-1.28-3.52-5.44-3.2c0,0-3.84,0-0.96,3.84
			c2.88,3.84-1.28,8.96-6.08,10.56c-4.8,1.6-3.84,4.8-7.68,6.72c-3.84,1.92-11.2,5.44-11.2,5.44s-7.455,4.045-2.24,6.081
			c13.12,5.119,18.56,1.6,20.16-0.961c0,0,20.16,5.44,27.52-17.92c0,0,13.12-16.64,14.4,5.12c0,0,0.96,8.32-9.6,17.92
			c-10.56,9.6-16.64,20.8-16.64,20.8s-5.44,4.48,3.52,6.08c0,0-1.28,6.08,4.48,10.561c0,0,5.44,1.279,6.4,0.64
			c0,0-0.32,8.64,8.64,4.16c0,0,6.4-7.36,16.32,0c0,0,8.32,6.399,13.44,5.439c0,0,6.72,9.92-5.44,9.28c0,0-12.48-0.64-15.36-1.6
			c0,0-12.16,3.84-1.28,4.8l6.72,0.32c0,0,2.88,1.6,0.32,3.52c0,0-1.28,4.48,0.96,8c0,0,3.84,16.64,7.68,1.28
			c0,0-3.52-11.84,4.48-9.601c0,0,3.84,0,5.12-1.279c0,0-3.84,11.84,0.32,15.359c0,0,7.04,3.521,6.08-2.88
			c-0.96-6.399-3.521-20.8,12.8-22.72c0,0,5.76-4.48-3.84-5.76c0,0-19.52,5.439-30.08-15.04c0,0,12.48-21.12,34.24-25.601
			c0,0,11.84,2.561,0.96,8.641c0,0-15.681,5.76-0.641,8c0,0-0.319,2.239,0.96,2.56c0,0-3.84,2.561-6.399,4.16
			c-2.561,1.6-11.84,5.44,0.96,6.72c0,0,4.16-5.439,9.92-1.92c0,0,4.8,0.641,2.24,5.76c0,0-1.601,8.96,7.359,6.4
			c0,0,3.84-3.84-0.319-7.04c0,0,0.319-8,7.04-3.2c0,0,3.199,13.12,28.8,6.4c0,0,24-9.28,37.439,3.2c0,0,5.761,8-6.399,6.72
			c0,0-7.36-1.28-10.561-3.84l-4.8,2.88c0,0,3.2,2.24,9.6,2.88c0,0,5.44,0,2.561,3.52c0,0-2.88,4.48-2.88,6.721
			c0,0,3.2,5.12,8-1.601c0,0,1.6-3.52,4.16-7.04c2.56-3.52,1.92,3.2,7.359,1.28c0,0-1.6,4.48,5.44,5.12c0,0,1.92-3.84-5.76-11.84
			c0,0-8.32-7.68,9.92-19.84c0,0,1.92-2.561-1.92-4.801c-3.841-2.239-7.681-2.239-10.24,3.2c-2.561,5.44-1.92,8-10.561,7.36
			c-8.64-0.64-12.479-0.64-12.479-0.64s-3.521-2.561-6.08-3.2c0,0,4.8,1.279,0.64-20.8c0,0,6.4-19.521,24-40c0,0,4.801-3.84-0.64-8
			c0,0,2.24-12.16-6.72-14.72c0,0-0.96,4.48-1.601,5.44c0,0-7.68-9.6-15.359-10.24c0,0,5.76,7.68,6.08,10.56
			c0,0,2.88,7.68-7.36,2.56s-19.84-15.68-19.84-15.68s-4.48-3.52-2.561,1.92c0,0,7.36,7.36,8,13.76c0,0,3.521,6.72-6.399,2.56
			s-15.04-18.24-15.04-18.24s-1.28-3.2-8-2.88c0,0-6.08,0.96,0.96,2.88c0,0,4.16,0.96,6.72,9.28c2.561,8.32,16.64,13.44,16.64,13.44
			s8.96,3.84,2.561,5.76c-6.4,1.92-8.64,2.56-18.88-3.84c0,0-10.561,0.32-2.88,3.2c0,0,2.239,6.08,18.56,6.72
			c0,0,14.4-1.92,16.64-3.2c0,0,7.36,2.88,11.2,1.6c0,0,8.32-0.64,2.561,8.96c0,0-18.24,21.12-16.32,31.36
			s-4.597,33.723-26.56,16.641c-8.641-6.721-11.841-20.16-11.841-20.16s-10.88-21.76-34.56-12.16c0,0-14.08,7.04-22.4,19.84
			c0,0-3.52,4.8-9.6,5.12s-10.88-6.72-4.16-13.76C250.24,299.52,253.12,294.72,261.44,296.64z"/>
		<path fill="#FF1100" d="M220.16,323.2c-8.747-0.214-8.747-0.214-8.747-0.214s-3.199-0.212-2.346,2.774s2.346,11.094,1.493,15.359
			h-8.747c0,0,4.266-10.026-2.56-18.56c0,0-1.493-6.187-11.093-1.066c0,0-6.827,6.826-8.747-0.214c0,0-0.64-9.813,14.934-7.466
			c0,0,7.04,2.987,9.813-3.841c0,0,3.414-5.332-7.253-5.76s-4.907-4.694-1.707-5.547c3.2-0.853,7.681-2.134,10.027,1.279
			c0,0,3.2,4.053,6.613-0.64s4.693,0.64,4.48,3.414c0,0,0.64,5.759-1.067,10.026c0,0-1.492,3.201,2.134,5.547
			C217.387,318.293,220.373,319.786,220.16,323.2z"/>
		<path fill="#FF1100" d="M193.92,269.867c2.56-6.614,7.893-15.36,13.44-10.24C212.907,264.747,200.96,270.934,193.92,269.867z"/>
		<path fill="#FF1100" d="M165.973,285.44c7.894-2.987,12.587-7.68,13.227-14.72c0,0-0.427-4.693,7.893-9.173
			c0,0,9.6-7.04-0.213-10.027s-11.733-8.32-11.52-14.72c0,0,0.426-2.987,5.973-1.92c0,0-0.427-10.453,5.76-4.053
			c0,0,3.414,1.707-1.493,5.12c0,0-6.827,8.747,2.773,7.04c0,0,6.4-5.12,9.813,2.56c3.414,7.68,0.854,10.027-2.987,12.8
			c-3.84,2.773-4.907,7.04-4.907,7.04s-1.279,2.56-4.906,4.693c-3.627,2.133-0.641,6.613-5.333,11.733
			C175.36,286.933,165.973,285.44,165.973,285.44z"/>
		<path fill="#FF1100" d="M211.2,235.733c-4.267,0.214-6.399-0.426-8.533-1.706c-2.134-1.28-1.92-1.707,0-2.987
			c1.92-1.28,2.773-2.133,1.493-4.053c0,0,3.626-3.2,5.973,3.2c0,0,5.76,0.426,4.48,4.693L211.2,235.733z"/>
		<path fill="#FF1100" d="M218.88,236.373c5.547-3.84,14.08-8.107,22.4-5.12c0,0,5.547-3.84,5.76,2.56c0,0,0.213,3.627,4.907,0.214
			c4.693-3.414,7.04,2.347,1.28,5.12c0,0-14.08,11.732-20.907,1.706C232.32,240.853,232.96,236.586,218.88,236.373z"/>
		<path fill="#FF1100" d="M198.613,220.8c10.027-3.84,11.733-3.414,10.88-15.147c0,0,1.494-8.96,5.974,1.28
			C219.947,217.173,203.306,224.427,198.613,220.8z"/>
		<path fill="#FF1100" d="M254.72,253.867c-0.853-4.054,2.133-5.333,4.693-1.92S255.147,254.934,254.72,253.867z"/>
		<path fill="#FF1100" d="M264.107,251.733c-2.56,2.987-2.987,5.973,0.213,6.4C267.52,258.56,265.813,253.439,264.107,251.733z"/>
		<path fill="#FF1100" d="M269.867,260.907c1.493-1.707,3.839-1.708,5.546,0.426C275.413,261.333,272.641,262.614,269.867,260.907z"
			/>
		<path fill="#FF1100" d="M271.787,269.653c2.133-1.92,4.906-2.772,7.466,0.214C279.253,269.867,278.827,272.853,271.787,269.653z"
			/>
		<path fill="#FF1100" d="M270.293,278.613c0,0-6.4,2.561-0.213,3.414C270.08,282.027,277.759,280.959,270.293,278.613z"/>
		<path fill="#FF1100" d="M266.027,288.427c1.28-1.707,4.052-1.707,4.906,0.213C270.933,288.64,269.867,291.201,266.027,288.427z"/>
		<path fill="#FF1100" d="M287.146,279.04c2.348-0.213,3.84,1.066,3.414,3.413C290.56,282.453,288.426,283.947,287.146,279.04z"/>
		<path fill="#FF1100" d="M301.226,274.56c3.414-2.773,8.535-1.707,7.468,3.84C308.694,278.4,299.306,279.253,301.226,274.56z"/>
		<path fill="#FF1100" d="M314.24,280.96c2.134-0.853,5.121,1.28,3.414,3.84C317.654,284.8,312.959,284.373,314.24,280.96z"/>
		<path fill="#FF1100" d="M345.814,319.786c-9.174-0.64-11.308-4.693-14.508-12.8c0,0,2.347-1.067,5.76,5.761
			C337.066,312.747,342.828,314.453,345.814,319.786z"/>
		<path fill="#FF1100" d="M248.64,168c-13.44,3.52-13.44,3.52-13.44,3.52s-2.56,0.96-7.68-0.64l15.68-4.8
			C243.2,166.08,247.04,165.76,248.64,168z"/>
		<path fill="#FF1100" d="M239.11,200.398c-0.503-3.611-0.451-9.299-0.124-13.965l7.093-3.074c0,0-1.92-1.92-4.48-1.28l-2.331,0.909
			c0.246-2.594,0.522-4.775,0.731-6.029c0.64-3.84-5.12-4.16-5.12-4.16c1.01,2.398,1.47,6.69,1.542,11.301l-7.942,3.099
			c6.358,0.254,7.659,0.307,7.927,0.317c-0.137,5.807-0.89,12.022-1.818,14.661c-6.665,2.423-12.829,3.903-12.829,3.903l7.36,1.92
			c0,0,0,0,16.96-11.2C244.089,198.102,241.657,199.311,239.11,200.398z"/>
		<path fill="#FF1100" d="M268.728,190.262c5.719-1.663,13.512-8.502,13.512-8.502s0.427-1.066-0.853-2.133
			s-2.774-4.908-5.974,1.066c0,0-2.973,7.24-6.836,9.423c-1.398-1.382-2.465-2.569-3.184-3.412
			c0.031-3.944,0.105-7.857,0.208-11.478c1.962-0.438,4.041-1.013,6.186-1.786c10.667-3.84-0.427-3.627-0.427-3.627
			c-1.353,0.879-3.393,1.801-5.676,2.67c0.211-6.321,0.501-11.403,0.769-13.55c0.853-6.827-2.986-5.12-2.986-5.12
			c-1.28-1.067-5.974-2.346-3.2,1.707c2.774,4.053,2.346,10.667,2.346,10.667s-0.094,3.017-0.215,7.461
			c-4.083,1.354-8.278,2.436-10.451,2.779c0,0,4.282,0.396,10.392-0.575c-0.283,10.751-0.646,27.328-0.366,32.788
			c0.426,8.32-2.56,4.907-7.04,2.987c11.52,15.574,11.52,2.346,11.52,2.346c-0.853-5.211-1.116-15.302-1.071-25.509
			c2.484,2.765,9.814,10.972,12.804,14.843c3.627,4.694,4.907,3.2,4.907,3.2s0,0,13.44-1.707
			C283.789,203.137,274.016,195.45,268.728,190.262z"/>
		<path fill="#FF1100" d="M246.613,201.813c-4.054,1.706-0.64,3.414-0.64,3.414s2.134,2.986,3.2,1.28
			c1.066-1.707,11.094-11.734,11.094-11.734S250.667,200.107,246.613,201.813z"/>
		<path fill="#FF1100" d="M257.28,189.653c0.427-3.2-3.627-4.48-5.76-4.48C252.16,190.293,257.28,189.653,257.28,189.653z"/>
		<path fill="#FF1100" d="M281.387,165.973c3.415-2.347-3.627-5.76-7.04-5.333C278.4,166.613,281.387,165.973,281.387,165.973z"/>
		<path fill="#FF1100" d="M367.574,215.253c-12.374,3.414-12.374,3.414-12.374,3.414s-6.188,2.986-15.573-4.267
			c-9.387-7.253-21.973-11.733-25.387-14.72c0,0-0.64,10.24-18.346,19.413l-0.214-0.853c0,0,17.492-14.933,15.786-27.733
			c0,0-1.279-5.761,4.268-1.494c0,0,5.76,0.853-0.641,8.96l11.093,4.48l0.214-21.333c0,0,6.398,2.347,4.906,7.68s-0.64,16-0.64,16
			S340.481,213.759,367.574,215.253z"/>
		<path fill="#FF1100" d="M329.386,192c3.2,0.213,6.613,0,11.094-1.92l6.613,0.853c0,0-9.6,4.694-17.92,2.134L329.386,192z"/>
		<path fill="#FF1100" d="M345.386,165.547c0,0-5.119-5.12-8.532-1.707c0,0-13.866,5.121-19.841,1.707c0,0-4.479-1.92-1.493,3.2
			c2.986,5.12,5.334,14.293,5.334,14.293s1.92,4.053,1.92-1.707c20.052-2.133,20.052-2.133,20.052-2.133l-2.132-2.133l3.84-7.467
			C344.534,169.6,348.798,168.534,345.386,165.547z M335.786,178.133l-13.012,1.92l-1.494-11.307l17.494-2.347L335.786,178.133z"/>
		<path fill="#FF1100" d="M254.293,374.826c0,0-22.826-20.267-24.533-21.119c0,0-10.239,19.84-33.493,30.72
			c0,0,21.974-17.705,28.16-30.293c0,0,2.986-3.84,0.213-9.174c0,0,10.881,1.281,7.467,7.254c0,0,17.279,17.28,38.826,22.187
			L254.293,374.826z"/>
		<path fill="#FF1100" d="M222.507,365.866c11.946-5.119,14.292-4.268,14.506-2.56C237.227,365.013,222.507,365.866,222.507,365.866
			z"/>
		<path fill="#FF1100" d="M247.467,372.053c0,0-1.706-3.84-7.68-2.773c-5.974,1.066-28.587,4.48-28.587,4.48s2.561,13.014,4.267,16
			c0,0,2.132,2.347,3.626-0.427c0,0,14.72-1.706,17.92-2.56l6.614,1.492c0,0,2.133-8.105,5.333-12.372
			C248.96,375.894,251.307,373.761,247.467,372.053z M218.027,387.2l-2.347-11.946l10.027-1.493l0.854,12.586L218.027,387.2z
			 M239.147,384.64l-8.96,0.854l0.213-12.374l11.947-1.066C242.347,372.053,244.267,380.374,239.147,384.64z"/>
		<path fill="#FF1100" d="M241.28,393.814c0,0-1.067-2.774-6.187-1.494c-5.12,1.28-14.507,3.414-20.48,1.92
			c0,0,2.134,7.254,1.067,18.773c0,0,3.413,12.373,4.693,1.493l13.654-1.493c0,0,5.333-0.212,5.76,7.04
			c4.053-3.199,4.267-6.614,2.986-19.627C242.773,400.426,246.827,395.307,241.28,393.814z M238.293,401.28l-0.853,10.026
			c-3.627-1.067-17.493,1.067-17.493,1.067l-0.214-6.613c5.333-0.214,14.294-2.774,14.294-2.774l-4.694-1.279
			c-5.974,0.853-9.6,0-9.6,0l0.427-5.547l11.52-1.28C240.64,392.32,238.293,401.28,238.293,401.28z"/>
		<path fill="#FF1100" d="M343.68,404.48l1.066,7.466c-17.921,4.267-20.267-11.306-20.267-11.306c-0.427-0.641-1.706,0-1.706,0
			c2.134,23.254,29.652,14.294,29.652,14.294C349.439,412.587,343.68,404.48,343.68,404.48z"/>
		<path fill="#FF1100" d="M319.36,400c-1.28,4.267-2.134,4.267-4.48,6.826c-2.346,2.561-2.346,10.24,2.986,3.414
			C323.199,403.414,319.36,400,319.36,400z"/>
		<path fill="#FF1100" d="M313.814,402.56c1.493-1.28,0.853-4.48-4.908-6.826C308.906,395.734,312.32,403.84,313.814,402.56z"/>
		<path fill="#FF1100" d="M300.374,399.36c0,0,2.772,7.04,4.48,5.76C306.561,403.84,305.707,401.066,300.374,399.36z"/>
		<path fill="#FF1100" d="M291.84,401.066c0,0,2.346,11.094,4.266,10.027C298.025,410.028,299.734,406.826,291.84,401.066z"/>
		<path fill="#FF1100" d="M358.186,405.76c0.213-4.48-4.479-5.975-10.88-7.254C350.718,403.838,358.186,405.76,358.186,405.76z"/>
		<path fill="#FF1100" d="M332.16,398.08c0,0,4.267,6.187,5.547,5.12C338.986,402.133,335.786,398.934,332.16,398.08z"/>
		<path fill="#FF1100" d="M312.106,389.76c7.68,3.199,3.628-2.347,3.628-2.347c-5.333-7.893-4.694,0.853-4.694,0.853
			c-2.773,0-9.6,2.134-9.6,2.134c6.4-6.826,9.813-15.574,13.439-18.134c3.627-2.56,0-3.84,0-3.84c-3.84-4.907-3.84,0-3.84,0
			c0,5.973-2.986,7.68-2.986,7.68c-3.199-0.854-8.96,0.854-9.6,0.428c-1.388-0.924,5.332-9.174,9.173-13.654
			c3.84-4.479,1.067-5.333-1.707-6.613c-1.493-0.64-1.065,2.773-1.065,2.773c-0.853,5.12-7.04,14.934-8.96,16.214
			c-1.921,1.28-1.068,2.561-1.068,2.561c-1.067,4.479,2.561,1.492,2.561,1.492c7.466-3.414,9.6-1.706,9.6-1.706
			c-3.413,7.254-9.386,11.733-9.386,11.733s-2.774,0.64-0.214,4.053c2.56,3.412,3.414,0.428,3.414,0.428
			C307.627,389.547,312.106,389.76,312.106,389.76z"/>
		<path fill="#FF1100" d="M345.6,395.093c3.413-5.546,3.2-24.96,3.2-24.96c5.119-1.92-1.494-4.479-1.494-4.479
			c-4.054-2.561-5.76,0-5.76,0c-2.774,1.067-12.587,2.346-12.587,2.346s2.561-4.479,6.614-8.319s0-4.694,0-4.694
			c-3.626-4.268-3.414,3.2-3.414,3.2l-6.187,9.174l-7.039,0.214c4.054,3.84,2.56,24.96,2.56,26.24c0,1.279,1.706,1.706,1.706,1.706
			C341.12,388.694,345.6,395.093,345.6,395.093z M331.783,369.043c-0.018,3.578-4.743,11.33-4.743,11.33s2.639-2.291,5.679-5.903
			c7.764,0.711,2.642,5.05,2.642,5.05l-1.075,1.844c-5.559-3.371-1.002-0.615-2.979-1.844l2.506,2.653l-4.426,7.587
			c0,0,1.586-1.588,5.761-6.174l3.413,3.613l0.426-2.986c-1.096-0.663-2.032-1.232-2.844-1.724c0.914-1.009,1.922-2.127,3.058-3.396
			c6.187-6.913-2.828-6.069-5.617-5.672c0.023-0.029,0.047-0.058,0.071-0.088c2.156-2.695,0.823-3.941-0.451-4.495l5.783-0.839
			c11.521-3.199,3.628,23.04,3.628,23.04c-5.973-2.56-17.494,1.28-17.494,1.28l-0.854-22.187L331.783,369.043z"/>
		<path fill="#FF1100" d="M219.093,378.026c0,0,7.466,1.067,5.12,4.268S222.506,380.798,219.093,378.026z"/>
		<path fill="#FF1100" d="M234.24,380.8c0.427-3.841,1.493-6.4,3.413-5.12C239.573,376.959,234.24,380.8,234.24,380.8z"/>
		<path fill="#FF1100" d="M276.48,288c0,0,2.134-2.347,4.907,0.213C281.387,288.212,278.827,289.707,276.48,288z"/>
	</g>
</svg>
